/vscmnt/brussel_pixiu_data/_data_brussel/112/vsc11236/PredSimResults/SUBJ04opt3D/weighted-trackIG/worker_01.mot
version=1
nRows=7
nColumns=50
inDegrees=yes
endheader
                time	         pelvis_tilt	         pelvis_list	     pelvis_rotation	           pelvis_tx	           pelvis_ty	           pelvis_tz	       hip_flexion_r	     hip_adduction_r	      hip_rotation_r	        knee_angle_r	       ankle_angle_r	         mtp_angle_r	       hip_flexion_l	     hip_adduction_l	      hip_rotation_l	        knee_angle_l	       ankle_angle_l	         mtp_angle_l	    lumbar_extension	      lumbar_bending	     lumbar_rotation	 ercspn_r/activation	 intobl_r/activation	 extobl_r/activation	    abd_r/activation	    add_r/activation	hamstrings_r/activation	bifemsh_r/activation	glut_max_r/activation	iliopsoas_r/activation	rect_fem_r/activation	  vasti_r/activation	gastroc_r/activation	 soleus_r/activation	tib_ant_r/activation	 ercspn_l/activation	 intobl_l/activation	 extobl_l/activation	    abd_l/activation	    add_l/activation	hamstrings_l/activation	bifemsh_l/activation	glut_max_l/activation	iliopsoas_l/activation	rect_fem_l/activation	  vasti_l/activation	gastroc_l/activation	 soleus_l/activation	tib_ant_l/activation	
          0.00000000	         -1.88840916	          0.26508189	          8.95255363	          0.00000000	          0.88190714	         -0.01121994	         28.78301327	         -3.22876504	        -11.07874728	        -11.93049978	          3.81114995	          0.23438339	        -12.68350396	         -0.72303680	         -8.42048719	         -8.31284955	         12.88167523	         21.21579961	        -13.48247149	         -3.31740458	         -7.69930699	          0.03944564	          0.21861569	          0.01895129	          0.00999999	          0.30972318	          0.06363751	          0.02249645	          0.01835512	          0.15364729	          0.03513137	          0.04471036	          0.00999999	          0.00999999	          0.31817168	          0.02772812	          0.00999999	          0.00999999	          0.05829870	          0.00999999	          0.02655380	          0.18160704	          0.01565341	          0.01224696	          0.00999999	          0.00999999	          0.24041084	          0.25487181	          0.00999999	
          0.01348183	         -1.98629131	          0.22922020	          8.69392728	          0.01583848	          0.87969206	         -0.01075455	         28.52734897	         -3.06741789	        -11.22285984	        -13.09006462	          3.58639342	          0.22302300	        -13.31831537	         -0.88344988	         -9.13742697	         -8.96234958	         12.56286140	         22.68671302	        -12.94766862	         -2.66671151	         -7.75607793	          0.03220848	          0.21873119	          0.01547427	          0.01949338	          0.25289776	          0.06505306	          0.01836900	          0.04179372	          0.12545737	          0.02868576	          0.03650728	          0.01224696	          0.01224696	          0.34517751	          0.02885538	          0.00999999	          0.00999999	          0.04760254	          0.00999999	          0.02168194	          0.14828730	          0.01278145	          0.00999999	          0.00999999	          0.00999999	          0.19831775	          0.24779051	          0.00999999	
          0.02696366	         -2.06852387	          0.13523790	          8.38388354	          0.03195612	          0.87773158	         -0.01018930	         28.20431420	         -2.86934521	        -11.41417629	        -14.11740224	          3.12860620	          0.21438453	        -13.85144269	         -1.12096971	         -9.88858408	         -9.85368135	         12.15617420	         24.18585058	        -12.39452713	         -1.93128612	         -7.77923266	          0.02629914	          0.17860022	          0.01263518	          0.03427237	          0.21126039	          0.07023341	          0.01499881	          0.03412576	          0.10243950	          0.02342274	          0.10446897	          0.00999999	          0.00999999	          0.37744933	          0.03047182	          0.00999999	          0.00999999	          0.03886882	          0.00999999	          0.01770392	          0.12108079	          0.01043642	          0.01000000	          0.00999999	          0.00999999	          0.16193207	          0.23334288	          0.00999999	
          0.04044549	         -2.13603295	          0.00050119	          8.02390408	          0.04818580	          0.87622793	         -0.00949970	         27.83717468	         -2.64271247	        -11.72185180	        -15.08075941	          2.70313231	          0.19128901	        -14.21496088	         -1.43006802	        -10.67098476	        -11.08267879	         11.59914228	         25.73255157	        -11.84928244	         -1.13665526	         -7.76573288	          0.03291702	          0.14583215	          0.01031698	          0.06255467	          0.18848071	          0.07043320	          0.01224696	          0.02786465	          0.08364476	          0.01912533	          0.17459276	          0.00999999	          0.00999999	          0.39978635	          0.04834082	          0.00999999	          0.00999999	          0.03173750	          0.00999999	          0.01445576	          0.09886590	          0.00999999	          0.00999999	          0.00999999	          0.00999999	          0.13222213	          0.20913677	          0.00999999	
          0.05392732	         -2.18961419	         -0.17321375	          7.62741364	          0.06438407	          0.87539374	         -0.00867520	         27.39776340	         -2.37402411	        -12.10022228	        -15.96820814	          2.51585799	          0.16603733	        -14.33549129	         -1.82869600	        -11.47600674	        -12.75068778	         10.83092747	         27.33549288	        -11.32920817	         -0.29296963	         -7.71711800	          0.03429864	          0.11907609	          0.00999999	          0.09412831	          0.16264506	          0.06871811	          0.00999999	          0.03861051	          0.06829832	          0.01561638	          0.21530897	          0.00999999	          0.00999999	          0.40102543	          0.08337362	          0.00999999	          0.00999999	          0.02591457	          0.00999999	          0.03945051	          0.08072681	          0.01215320	          0.00999999	          0.00999999	          0.01220702	          0.10796312	          0.17076610	          0.00999999	
          0.06740915	         -2.23038562	         -0.38410968	          7.21182954	          0.08038498	          0.87539616	         -0.00771338	         26.88845041	         -2.04633764	        -12.45060640	        -16.76876079	          2.58030589	          0.14817953	        -14.14540596	         -2.33757045	        -12.29689262	        -14.94293333	          9.79964209	         28.96601260	        -10.85107610	          0.58973968	         -7.64166869	          0.03499459	          0.09722900	          0.00999999	          0.11256398	          0.14612784	          0.06999583	          0.01000000	          0.03438663	          0.05576752	          0.01275121	          0.23115290	          0.00999999	          0.00999999	          0.38561035	          0.10561093	          0.00999999	          0.00999999	          0.02115998	          0.01000000	          0.06623139	          0.06591573	          0.01836901	          0.00999999	          0.00999999	          0.01836901	          0.08815495	          0.13943537	          0.00999999	
          0.08089099	         -2.25880801	         -0.61188229	          6.78918124	          0.09610100	          0.87624481	         -0.00662671	         26.30133267	         -1.66473527	        -12.69777970	        -17.44857305	          2.84132218	          0.15133981	        -13.62540036	         -2.95097065	        -13.12866577	        -17.66917302	          8.45991966	         30.55740606	        -10.42383517	          1.48317406	         -7.54509937	          0.03374208	          0.07939024	          0.00999999	          0.11988385	          0.15924754	          0.07414411	          0.01000000	          0.03535014	          0.04553576	          0.01041173	          0.24596075	          0.00999999	          0.00999999	          0.35176924	          0.09811723	          0.00999999	          0.00999999	          0.01727772	          0.12108695	          0.08507119	          0.05382207	          0.01499882	          0.00999999	          0.00999999	          0.01499882	          0.07198102	          0.11385293	          0.00999999	
